<svg aria-hidden="true" style="position: absolute; width: 0; height: 0; overflow: hidden;" version="1.1" xmlns="http://www.w3.org/2000/svg">
    <defs>
        <symbol viewBox="0 0 512 512" id="plus">
            <path d="M467 211H301V45c0-24.853-20.147-45-45-45s-45 20.147-45 45v166H45c-24.853 0-45 20.147-45 45s20.147 45 45 45h166v166c0 24.853 20.147 45 45 45s45-20.147 45-45V301h166c24.853 0 45-20.147 45-45s-20.147-45-45-45z" fill="currentColor"/>
        </symbol>
        <symbol viewBox="0 0 512 512" id="trash">
            <path d="M424 64h-88V48c0-26.467-21.533-48-48-48h-64c-26.467 0-48 21.533-48 48v16H88c-22.056 0-40 17.944-40 40v56c0 8.836 7.164 16 16 16h8.744l13.823 290.283C87.788 491.919 108.848 512 134.512 512h242.976c25.665 0 46.725-20.081 47.945-45.717L439.256 176H448c8.836 0 16-7.164 16-16v-56c0-22.056-17.944-40-40-40zM208 48c0-8.822 7.178-16 16-16h64c8.822 0 16 7.178 16 16v16h-96zM80 104c0-4.411 3.589-8 8-8h336c4.411 0 8 3.589 8 8v40H80zm313.469 360.761A15.98 15.98 0 0 1 377.488 480H134.512a15.98 15.98 0 0 1-15.981-15.239L104.78 176h302.44z" fill="currentColor"/>
            <path d="M256 448c8.836 0 16-7.164 16-16V224c0-8.836-7.164-16-16-16s-16 7.164-16 16v208c0 8.836 7.163 16 16 16zM336 448c8.836 0 16-7.164 16-16V224c0-8.836-7.164-16-16-16s-16 7.164-16 16v208c0 8.836 7.163 16 16 16zM176 448c8.836 0 16-7.164 16-16V224c0-8.836-7.164-16-16-16s-16 7.164-16 16v208c0 8.836 7.163 16 16 16z" fill="currentColor"/>
        </symbol>
        <symbol viewBox="0 0 511.985 511.985" id="check">
            <path d="M500.088 83.681c-15.841-15.862-41.564-15.852-57.426 0L184.205 342.148 69.332 227.276c-15.862-15.862-41.574-15.862-57.436 0-15.862 15.862-15.862 41.574 0 57.436l143.585 143.585c7.926 7.926 18.319 11.899 28.713 11.899 10.394 0 20.797-3.963 28.723-11.899l287.171-287.181c15.862-15.851 15.862-41.574 0-57.435z" fill="currentColor"/>
        </symbol>
        <symbol viewBox="0 0 320.591 320.591" id="close">
            <path d="M30.391 318.583a30.37 30.37 0 0 1-21.56-7.288c-11.774-11.844-11.774-30.973 0-42.817L266.643 10.665c12.246-11.459 31.462-10.822 42.921 1.424 10.362 11.074 10.966 28.095 1.414 39.875L51.647 311.295a30.366 30.366 0 0 1-21.256 7.288z" fill="currentColor"/>
            <path d="M287.9 318.583a30.37 30.37 0 0 1-21.257-8.806L8.83 51.963C-2.078 39.225-.595 20.055 12.143 9.146c11.369-9.736 28.136-9.736 39.504 0l259.331 257.813c12.243 11.462 12.876 30.679 1.414 42.922-.456.487-.927.958-1.414 1.414a30.368 30.368 0 0 1-23.078 7.288z" fill="currentColor"/>
        </symbol>
        <symbol viewBox="0 0 492.493 492" id="edit">
            <path d="M304.14 82.473 33.165 353.469a10.799 10.799 0 0 0-2.816 4.949L.313 478.973a10.716 10.716 0 0 0 2.816 10.136 10.675 10.675 0 0 0 7.527 3.114 10.6 10.6 0 0 0 2.582-.32l120.555-30.04a10.655 10.655 0 0 0 4.95-2.812l271-270.977zM476.875 45.523 446.711 15.36c-20.16-20.16-55.297-20.14-75.434 0l-36.949 36.95 105.598 105.597 36.949-36.949c10.07-10.066 15.617-23.465 15.617-37.715s-5.547-27.648-15.617-37.719zm0 0" fill="currentColor"/>
        </symbol>
        <symbol viewBox="0 0 512 512" id="excel">
            <path d="M496 80.011H288v-48c0-4.768-2.112-9.28-5.792-12.32-3.648-3.04-8.544-4.352-13.152-3.392l-256 48A15.955 15.955 0 0 0 0 80.011v352c0 7.68 5.472 14.304 13.056 15.712l256 48c.96.192 1.952.288 2.944.288 3.712 0 7.328-1.28 10.208-3.68a16.006 16.006 0 0 0 5.792-12.32v-48h208c8.832 0 16-7.168 16-16v-320c0-8.832-7.168-16-16-16zM220.032 309.483c5.824 6.624 5.152 16.736-1.504 22.56A15.943 15.943 0 0 1 208 336.011a15.951 15.951 0 0 1-12.032-5.472l-46.528-53.152-40.8 52.48A16.073 16.073 0 0 1 96 336.011c-3.424 0-6.88-1.088-9.824-3.36-6.976-5.44-8.224-15.488-2.816-22.464l44.608-57.344-44-50.304c-5.824-6.624-5.152-16.736 1.504-22.56 6.624-5.824 16.704-5.184 22.592 1.504L148 227.115l47.392-60.928c5.44-6.944 15.488-8.224 22.464-2.784 6.976 5.408 8.224 15.456 2.784 22.464l-51.2 65.792 50.592 57.824zM480 400.011H288v-32h48c8.832 0 16-7.168 16-16s-7.168-16-16-16h-48v-32h48c8.832 0 16-7.168 16-16s-7.168-16-16-16h-48v-32h48c8.832 0 16-7.168 16-16s-7.168-16-16-16h-48v-32h48c8.832 0 16-7.168 16-16s-7.168-16-16-16h-48v-32h192v288z" fill="currentColor"/>
            <path d="M432 144.011h-32c-8.832 0-16 7.168-16 16s7.168 16 16 16h32c8.832 0 16-7.168 16-16s-7.168-16-16-16zM432 208.011h-32c-8.832 0-16 7.168-16 16s7.168 16 16 16h32c8.832 0 16-7.168 16-16s-7.168-16-16-16zM432 272.011h-32c-8.832 0-16 7.168-16 16s7.168 16 16 16h32c8.832 0 16-7.168 16-16s-7.168-16-16-16zM432 336.011h-32c-8.832 0-16 7.168-16 16s7.168 16 16 16h32c8.832 0 16-7.168 16-16s-7.168-16-16-16z" fill="currentColor"/>
        </symbol>
        <symbol viewBox="0 0 58 58" id="xml">
            <path d="m50.949 12.187-1.361-1.361-9.504-9.505-.002-.001-.77-.771A1.867 1.867 0 0 0 37.985 0H8.963C7.776 0 6.5.916 6.5 2.926V56c0 .837.841 1.652 1.836 1.909.051.014.1.033.152.043.156.031.315.048.475.048h40.074c.16 0 .319-.017.475-.048.052-.01.101-.029.152-.043.995-.257 1.836-1.072 1.836-1.909V13.978c0-.767-.093-1.334-.551-1.791zM39.5 3.565 47.935 12H39.5V3.565zM8.963 56c-.071 0-.135-.025-.198-.049a.46.46 0 0 1-.265-.414V41h41v14.537a.46.46 0 0 1-.265.414c-.063.024-.127.049-.198.049H8.963zM8.5 39V2.926c0-.217.033-.926.463-.926h28.595a1.54 1.54 0 0 0-.058.391V14h11.608c.135 0 .265-.025.391-.058l.001.036V39h-41z" fill="currentColor"/>
            <path d="m21.227 43.924-1.928 4.101h-.137l-1.777-4.101h-1.873l2.72 5.181L15.676 54h1.9l1.723-3.801h.137L21.035 54h1.901l-2.557-4.895 2.721-5.181zM30.018 50.814l-2.995-6.89h-1.668V54h1.668v-6.932l2.27 5.606h1.449l2.256-5.606V54h1.668V43.924h-1.668zM38.863 43.924h-1.668V54h6.303v-1.244h-4.635zM23.207 17.293a.999.999 0 0 0-1.414 0l-6 6a.999.999 0 0 0 0 1.414l6 6a.997.997 0 0 0 1.414 0 .999.999 0 0 0 0-1.414L17.914 24l5.293-5.293a.999.999 0 0 0 0-1.414zM35.207 17.293a.999.999 0 1 0-1.414 1.414L39.086 24l-5.293 5.293a.999.999 0 1 0 1.414 1.414l6-6a.999.999 0 0 0 0-1.414l-6-6zM31.833 14.057a.998.998 0 0 0-1.276.61l-6 17a1 1 0 0 0 1.886.666l6-17a1 1 0 0 0-.61-1.276z" fill="currentColor"/>
        </symbol>
        <symbol viewBox="0 0 511.999 511.999" id="eye">
            <path d="M508.745 246.041c-4.574-6.257-113.557-153.206-252.748-153.206S7.818 239.784 3.249 246.035a16.896 16.896 0 0 0 0 19.923c4.569 6.257 113.557 153.206 252.748 153.206s248.174-146.95 252.748-153.201a16.875 16.875 0 0 0 0-19.922zM255.997 385.406c-102.529 0-191.33-97.533-217.617-129.418 26.253-31.913 114.868-129.395 217.617-129.395 102.524 0 191.319 97.516 217.617 129.418-26.253 31.912-114.868 129.395-217.617 129.395z" fill="currentColor"/>
            <path d="M255.997 154.725c-55.842 0-101.275 45.433-101.275 101.275s45.433 101.275 101.275 101.275S357.272 311.842 357.272 256s-45.433-101.275-101.275-101.275zm0 168.791c-37.23 0-67.516-30.287-67.516-67.516s30.287-67.516 67.516-67.516 67.516 30.287 67.516 67.516-30.286 67.516-67.516 67.516z" fill="currentColor"/>
        </symbol>
        <symbol viewBox="0 0 512 512" id="copy">
            <path d="M271 512H80c-44.113 0-80-35.887-80-80V161c0-44.113 35.887-80 80-80h191c44.113 0 80 35.887 80 80v271c0 44.113-35.887 80-80 80zM80 121c-22.055 0-40 17.945-40 40v271c0 22.055 17.945 40 40 40h191c22.055 0 40-17.945 40-40V161c0-22.055-17.945-40-40-40zm351 261V80c0-44.113-35.887-80-80-80H129c-11.047 0-20 8.953-20 20s8.953 20 20 20h222c22.055 0 40 17.945 40 40v302c0 11.047 8.953 20 20 20s20-8.953 20-20zm0 0" fill="currentColor"/>
        </symbol>
    </defs>
</svg>
